# xmcd
# 
# Track frame offsets:
#     150
#     45167
#     95868
#     131375
#     167453
#     227840
#     265390
# 
# Disc length: 3899
# 
# Revision: 3
# Processed by: cddbd v1.5.2PL0 Copyright (c) Steve Scherf et al.
# Submitted via: fre:ac v1.0.17
# 
DISCID=530f3907
DTITLE=Cannonball Adderley - Lugano 1963
DYEAR=1963
DGENRE=Jazz
TTITLE0=Jessica's Birthday
TTITLE1=Jive Samba
TTITLE2=Bohemia After Dark
TTITLE3=Dizzy's Business
TTITLE4=Trouble In Mind
TTITLE5=Work Song
TTITLE6=Unit Seven
EXTD=
EXTT0=
EXTT1=
EXTT2=
EXTT3=
EXTT4=
EXTT5=
EXTT6=
PLAYORDER=
